<svg width="40" height="40" viewBox="0 0 40 40" fill="none" xmlns="http://www.w3.org/2000/svg">
<path d="M32 0C36.4183 0 40 3.58172 40 8V32C40 36.4183 36.4183 40 32 40H8C3.58172 40 6.44277e-08 36.4183 0 32V8C0 3.58172 3.58172 6.44256e-08 8 0H32Z" stroke="#E5E7EB"/>
<path d="M28 32H12V8H28V32Z" stroke="#E5E7EB"/>
<g clip-path="url(#clip0_3_222)">
<path d="M27.4969 16.2063C27.5969 16.4781 27.5126 16.7812 27.2969 16.975L25.9438 18.2063C25.9782 18.4656 25.9969 18.7312 25.9969 19C25.9969 19.2688 25.9782 19.5344 25.9438 19.7937L27.2969 21.025C27.5126 21.2188 27.5969 21.5219 27.4969 21.7937C27.3594 22.1656 27.1938 22.5219 27.0032 22.8656L26.8563 23.1187C26.6501 23.4625 26.4188 23.7875 26.1657 24.0938C25.9813 24.3188 25.6751 24.3937 25.4001 24.3062L23.6594 23.7531C23.2407 24.075 22.7782 24.3438 22.2844 24.5469L21.8938 26.3313C21.8313 26.6156 21.6126 26.8406 21.3251 26.8875C20.8938 26.9594 20.4501 26.9969 19.9969 26.9969C19.5438 26.9969 19.1001 26.9594 18.6688 26.8875C18.3813 26.8406 18.1626 26.6156 18.1001 26.3313L17.7094 24.5469C17.2157 24.3438 16.7532 24.075 16.3344 23.7531L14.5969 24.3094C14.3219 24.3969 14.0157 24.3188 13.8313 24.0969C13.5782 23.7906 13.3469 23.4656 13.1407 23.1219L12.9938 22.8687C12.8032 22.525 12.6376 22.1687 12.5001 21.7969C12.4001 21.525 12.4844 21.2219 12.7001 21.0281L14.0532 19.7969C14.0188 19.5344 14.0001 19.2688 14.0001 19C14.0001 18.7312 14.0188 18.4656 14.0532 18.2063L12.7001 16.975C12.4844 16.7812 12.4001 16.4781 12.5001 16.2063C12.6376 15.8344 12.8032 15.4781 12.9938 15.1344L13.1407 14.8812C13.3469 14.5375 13.5782 14.2125 13.8313 13.9062C14.0157 13.6813 14.3219 13.6062 14.5969 13.6937L16.3376 14.2469C16.7563 13.925 17.2188 13.6562 17.7126 13.4531L18.1032 11.6687C18.1657 11.3844 18.3844 11.1594 18.6719 11.1125C19.1032 11.0375 19.5469 11 20.0001 11C20.4532 11 20.8969 11.0375 21.3282 11.1094C21.6157 11.1562 21.8344 11.3812 21.8969 11.6656L22.2876 13.45C22.7813 13.6531 23.2438 13.9219 23.6626 14.2438L25.4032 13.6906C25.6782 13.6031 25.9844 13.6813 26.1688 13.9031C26.4219 14.2094 26.6532 14.5344 26.8594 14.8781L27.0063 15.1312C27.1969 15.475 27.3626 15.8313 27.5001 16.2031L27.4969 16.2063ZM20.0001 21.5C20.6631 21.5 21.299 21.2366 21.7678 20.7678C22.2367 20.2989 22.5001 19.663 22.5001 19C22.5001 18.337 22.2367 17.7011 21.7678 17.2322C21.299 16.7634 20.6631 16.5 20.0001 16.5C19.337 16.5 18.7011 16.7634 18.2323 17.2322C17.7634 17.7011 17.5001 18.337 17.5001 19C17.5001 19.663 17.7634 20.2989 18.2323 20.7678C18.7011 21.2366 19.337 21.5 20.0001 21.5Z" fill="#667085"/>
</g>
<defs>
<clipPath id="clip0_3_222">
<path d="M12 11H28V27H12V11Z" fill="white"/>
</clipPath>
</defs>
</svg>
