<svg width="40" height="40" viewBox="0 0 40 40" fill="none" xmlns="http://www.w3.org/2000/svg">
<path d="M32 0C36.4183 0 40 3.58172 40 8V32C40 36.4183 36.4183 40 32 40H8C3.58172 40 6.44277e-08 36.4183 0 32V8C0 3.58172 3.58172 6.44256e-08 8 0H32Z" stroke="#E5E7EB"/>
<path d="M27 32H13V8H27V32Z" stroke="#E5E7EB"/>
<g clip-path="url(#clip0_3_217)">
<path d="M20 11C19.4469 11 19 11.4469 19 12V12.5594C16.7344 12.9188 15 14.8812 15 17.25V18.2937C15 19.7125 14.5157 21.0906 13.6313 22.1969L13.1657 22.7812C12.9844 23.0063 12.95 23.3156 13.075 23.575C13.2 23.8344 13.4625 24 13.75 24H26.25C26.5375 24 26.8 23.8344 26.925 23.575C27.05 23.3156 27.0157 23.0063 26.8344 22.7812L26.3688 22.2C25.4844 21.0906 25 19.7125 25 18.2937V17.25C25 14.8812 23.2657 12.9188 21 12.5594V12C21 11.4469 20.5532 11 20 11ZM20 14H20.25C22.0438 14 23.5 15.4563 23.5 17.25V18.2937C23.5 19.7906 23.9344 21.25 24.7407 22.5H15.2594C16.0657 21.25 16.5 19.7906 16.5 18.2937V17.25C16.5 15.4563 17.9563 14 19.75 14H20ZM22 25H20H18C18 25.5312 18.2094 26.0406 18.5844 26.4156C18.9594 26.7906 19.4688 27 20 27C20.5313 27 21.0407 26.7906 21.4157 26.4156C21.7907 26.0406 22 25.5312 22 25Z" fill="#667085"/>
</g>
<defs>
<clipPath id="clip0_3_217">
<path d="M13 11H27V27H13V11Z" fill="white"/>
</clipPath>
</defs>
</svg>
