<svg width="212" height="40" viewBox="0 0 212 40" fill="none" xmlns="http://www.w3.org/2000/svg">
<path d="M212 40H0V0H212V40Z" stroke="#E5E7EB"/>
<path d="M32 0C36.4183 0 40 3.58172 40 8V32C40 36.4183 36.4183 40 32 40H8C3.58172 40 0 36.4183 0 32V8C0 3.58172 3.58172 0 8 0H32Z" fill="#DCFCE7"/>
<path d="M32 0C36.4183 0 40 3.58172 40 8V32C40 36.4183 36.4183 40 32 40H8C3.58172 40 0 36.4183 0 32V8C0 3.58172 3.58172 0 8 0H32Z" stroke="#E5E7EB"/>
<path d="M26 32H14V8H26V32Z" stroke="#E5E7EB"/>
<g clip-path="url(#clip0_3_298)">
<path d="M16 11C14.8969 11 14 11.8969 14 13V25C14 26.1031 14.8969 27 16 27H24C25.1031 27 26 26.1031 26 25V13C26 11.8969 25.1031 11 24 11H16ZM17 13H23C23.5531 13 24 13.4469 24 14V15C24 15.5531 23.5531 16 23 16H17C16.4469 16 16 15.5531 16 15V14C16 13.4469 16.4469 13 17 13ZM18 18C18 18.2652 17.8946 18.5196 17.7071 18.7071C17.5196 18.8946 17.2652 19 17 19C16.7348 19 16.4804 18.8946 16.2929 18.7071C16.1054 18.5196 16 18.2652 16 18C16 17.7348 16.1054 17.4804 16.2929 17.2929C16.4804 17.1054 16.7348 17 17 17C17.2652 17 17.5196 17.1054 17.7071 17.2929C17.8946 17.4804 18 17.7348 18 18ZM17 22C16.7348 22 16.4804 21.8946 16.2929 21.7071C16.1054 21.5196 16 21.2652 16 21C16 20.7348 16.1054 20.4804 16.2929 20.2929C16.4804 20.1054 16.7348 20 17 20C17.2652 20 17.5196 20.1054 17.7071 20.2929C17.8946 20.4804 18 20.7348 18 21C18 21.2652 17.8946 21.5196 17.7071 21.7071C17.5196 21.8946 17.2652 22 17 22ZM16 24C16 23.4469 16.4469 23 17 23H20C20.5531 23 21 23.4469 21 24C21 24.5531 20.5531 25 20 25H17C16.4469 25 16 24.5531 16 24ZM20 19C19.7348 19 19.4804 18.8946 19.2929 18.7071C19.1054 18.5196 19 18.2652 19 18C19 17.7348 19.1054 17.4804 19.2929 17.2929C19.4804 17.1054 19.7348 17 20 17C20.2652 17 20.5196 17.1054 20.7071 17.2929C20.8946 17.4804 21 17.7348 21 18C21 18.2652 20.8946 18.5196 20.7071 18.7071C20.5196 18.8946 20.2652 19 20 19ZM21 21C21 21.2652 20.8946 21.5196 20.7071 21.7071C20.5196 21.8946 20.2652 22 20 22C19.7348 22 19.4804 21.8946 19.2929 21.7071C19.1054 21.5196 19 21.2652 19 21C19 20.7348 19.1054 20.4804 19.2929 20.2929C19.4804 20.1054 19.7348 20 20 20C20.2652 20 20.5196 20.1054 20.7071 20.2929C20.8946 20.4804 21 20.7348 21 21ZM23 19C22.7348 19 22.4804 18.8946 22.2929 18.7071C22.1054 18.5196 22 18.2652 22 18C22 17.7348 22.1054 17.4804 22.2929 17.2929C22.4804 17.1054 22.7348 17 23 17C23.2652 17 23.5196 17.1054 23.7071 17.2929C23.8946 17.4804 24 17.7348 24 18C24 18.2652 23.8946 18.5196 23.7071 18.7071C23.5196 18.8946 23.2652 19 23 19ZM24 21C24 21.2652 23.8946 21.5196 23.7071 21.7071C23.5196 21.8946 23.2652 22 23 22C22.7348 22 22.4804 21.8946 22.2929 21.7071C22.1054 21.5196 22 21.2652 22 21C22 20.7348 22.1054 20.4804 22.2929 20.2929C22.4804 20.1054 22.7348 20 23 20C23.2652 20 23.5196 20.1054 23.7071 20.2929C23.8946 20.4804 24 20.7348 24 21ZM23 25C22.7348 25 22.4804 24.8946 22.2929 24.7071C22.1054 24.5196 22 24.2652 22 24C22 23.7348 22.1054 23.4804 22.2929 23.2929C22.4804 23.1054 22.7348 23 23 23C23.2652 23 23.5196 23.1054 23.7071 23.2929C23.8946 23.4804 24 23.7348 24 24C24 24.2652 23.8946 24.5196 23.7071 24.7071C23.5196 24.8946 23.2652 25 23 25Z" fill="#16A34A"/>
</g>
<path d="M212 24H196V0H212V24Z" stroke="#E5E7EB"/>
<path d="M212 23H196V0H212V23Z" stroke="#E5E7EB"/>
<path d="M212 19H196V3H212V19Z" stroke="#E5E7EB"/>
<path d="M197.487 12.3874L203.134 17.6593C203.369 17.878 203.678 17.9999 204 17.9999C204.322 17.9999 204.631 17.878 204.866 17.6593L210.512 12.3874C211.462 11.503 212 10.2624 212 8.96555V8.7843C212 6.59992 210.422 4.73742 208.269 4.37805C206.844 4.14055 205.394 4.60617 204.375 5.62492L204 5.99992L203.625 5.62492C202.606 4.60617 201.156 4.14055 199.731 4.37805C197.578 4.73742 196 6.59992 196 8.7843V8.96555C196 10.2624 196.537 11.503 197.487 12.3874Z" fill="#EF4444"/>
<defs>
<clipPath id="clip0_3_298">
<path d="M14 11H26V27H14V11Z" fill="white"/>
</clipPath>
</defs>
</svg>
