<svg width="212" height="40" viewBox="0 0 212 40" fill="none" xmlns="http://www.w3.org/2000/svg">
<path d="M212 40H0V0H212V40Z" stroke="#E5E7EB"/>
<path d="M32 0C36.4183 0 40 3.58172 40 8V32C40 36.4183 36.4183 40 32 40H8C3.58172 40 0 36.4183 0 32V8C0 3.58172 3.58172 0 8 0H32Z" fill="#FFEDD5"/>
<path d="M32 0C36.4183 0 40 3.58172 40 8V32C40 36.4183 36.4183 40 32 40H8C3.58172 40 0 36.4183 0 32V8C0 3.58172 3.58172 0 8 0H32Z" stroke="#E5E7EB"/>
<path d="M27 32H13V8H27V32Z" stroke="#E5E7EB"/>
<g clip-path="url(#clip0_3_336)">
<path d="M16 11C14.3438 11 13 12.3438 13 14V24C13 25.6562 14.3438 27 16 27H25H26C26.5531 27 27 26.5531 27 26C27 25.4469 26.5531 25 26 25V23C26.5531 23 27 22.5531 27 22V12C27 11.4469 26.5531 11 26 11H25H16ZM16 23H24V25H16C15.4469 25 15 24.5531 15 24C15 23.4469 15.4469 23 16 23ZM17 15.5C17 15.225 17.225 15 17.5 15H23.5C23.775 15 24 15.225 24 15.5C24 15.775 23.775 16 23.5 16H17.5C17.225 16 17 15.775 17 15.5ZM17.5 17H23.5C23.775 17 24 17.225 24 17.5C24 17.775 23.775 18 23.5 18H17.5C17.225 18 17 17.775 17 17.5C17 17.225 17.225 17 17.5 17Z" fill="#EA580C"/>
</g>
<path d="M212 24H196V0H212V24Z" stroke="#E5E7EB"/>
<path d="M212 23H196V0H212V23Z" stroke="#E5E7EB"/>
<path d="M212 19H196V3H212V19Z" stroke="#E5E7EB"/>
<path d="M197.487 12.3874L203.134 17.6593C203.369 17.878 203.678 17.9999 204 17.9999C204.322 17.9999 204.631 17.878 204.866 17.6593L210.512 12.3874C211.462 11.503 212 10.2624 212 8.96555V8.7843C212 6.59992 210.422 4.73742 208.269 4.37805C206.844 4.14055 205.394 4.60617 204.375 5.62492L204 5.99992L203.625 5.62492C202.606 4.60617 201.156 4.14055 199.731 4.37805C197.578 4.73742 196 6.59992 196 8.7843V8.96555C196 10.2624 196.537 11.503 197.487 12.3874Z" fill="#EF4444"/>
<defs>
<clipPath id="clip0_3_336">
<path d="M13 11H27V27H13V11Z" fill="white"/>
</clipPath>
</defs>
</svg>
