<svg width="212" height="40" viewBox="0 0 212 40" fill="none" xmlns="http://www.w3.org/2000/svg">
<path d="M212 40H0V0H212V40Z" stroke="#E5E7EB"/>
<path d="M32 0C36.4183 0 40 3.58172 40 8V32C40 36.4183 36.4183 40 32 40H8C3.58172 40 0 36.4183 0 32V8C0 3.58172 3.58172 0 8 0H32Z" fill="#DBEAFE"/>
<path d="M32 0C36.4183 0 40 3.58172 40 8V32C40 36.4183 36.4183 40 32 40H8C3.58172 40 0 36.4183 0 32V8C0 3.58172 3.58172 0 8 0H32Z" stroke="#E5E7EB"/>
<path d="M30 32H10V8H30V32Z" stroke="#E5E7EB"/>
<path d="M30 27H10V11H30V27Z" stroke="#E5E7EB"/>
<path d="M12 14C12 12.8969 12.8969 12 14 12H26C27.1031 12 28 12.8969 28 14V22H26V14H14V22H12V14ZM10 23.6C10 23.2688 10.2688 23 10.6 23H29.4C29.7312 23 30 23.2688 30 23.6C30 24.925 28.925 26 27.6 26H12.4C11.075 26 10 24.925 10 23.6ZM18.7812 17.5312L17.8125 18.5L18.7812 19.4688C19.075 19.7625 19.075 20.2375 18.7812 20.5281C18.4875 20.8187 18.0125 20.8219 17.7219 20.5281L16.2219 19.0281C15.9281 18.7344 15.9281 18.2594 16.2219 17.9688L17.7219 16.4688C18.0156 16.175 18.4906 16.175 18.7812 16.4688C19.0719 16.7625 19.075 17.2375 18.7812 17.5281V17.5312ZM22.2812 16.4688L23.7812 17.9688C24.075 18.2625 24.075 18.7375 23.7812 19.0281L22.2812 20.5281C21.9875 20.8219 21.5125 20.8219 21.2219 20.5281C20.9313 20.2344 20.9281 19.7594 21.2219 19.4688L22.1906 18.5L21.2219 17.5312C20.9281 17.2375 20.9281 16.7625 21.2219 16.4719C21.5156 16.1813 21.9906 16.1781 22.2812 16.4719V16.4688Z" fill="#2563EB"/>
<path d="M212 24H196V0H212V24Z" stroke="#E5E7EB"/>
<path d="M212 23H196V0H212V23Z" stroke="#E5E7EB"/>
<path d="M212 19H196V3H212V19Z" stroke="#E5E7EB"/>
<path d="M203.056 17.6312L202.978 17.5593L197.503 12.475C196.544 11.5843 196 10.3343 196 9.02496V8.92183C196 6.72183 197.562 4.83433 199.725 4.42183C200.956 4.18433 202.216 4.46871 203.219 5.17496C203.5 5.37496 203.762 5.60621 204 5.87183C204.131 5.72183 204.272 5.58433 204.422 5.45621C204.538 5.35621 204.656 5.26246 204.781 5.17496C205.784 4.46871 207.044 4.18433 208.275 4.41871C210.438 4.83121 212 6.72183 212 8.92183V9.02496C212 10.3343 211.456 11.5843 210.497 12.475L205.022 17.5593L204.944 17.6312C204.688 17.8687 204.35 18.0031 204 18.0031C203.65 18.0031 203.312 17.8718 203.056 17.6312ZM203.472 7.53121C203.459 7.52183 203.45 7.50933 203.441 7.49683L202.884 6.87183L202.881 6.86871C202.159 6.05933 201.069 5.69058 200.006 5.89371C198.55 6.17183 197.5 7.44058 197.5 8.92183V9.02496C197.5 9.91558 197.872 10.7687 198.525 11.375L204 16.4593L209.475 11.375C210.128 10.7687 210.5 9.91558 210.5 9.02496V8.92183C210.5 7.44371 209.45 6.17183 207.997 5.89371C206.934 5.69058 205.841 6.06246 205.122 6.86871C205.122 6.86871 205.122 6.86871 205.119 6.87183C205.116 6.87496 205.119 6.87183 205.116 6.87496L204.559 7.49996C204.55 7.51246 204.537 7.52183 204.528 7.53433C204.387 7.67496 204.197 7.75308 204 7.75308C203.803 7.75308 203.613 7.67496 203.472 7.53433V7.53121Z" fill="#A3A3A3"/>
</svg>
