<svg width="32" height="32" viewBox="0 0 32 32" fill="none" xmlns="http://www.w3.org/2000/svg">
<path d="M24 0C28.4183 0 32 3.58172 32 8V24C32 28.4183 28.4183 32 24 32H8C3.58172 32 0 28.4183 0 24V8C0 3.58172 3.58172 0 8 0H24Z" fill="#3E74F0"/>
<path d="M24 0C28.4183 0 32 3.58172 32 8V24C32 28.4183 28.4183 32 24 32H8C3.58172 32 0 28.4183 0 24V8C0 3.58172 3.58172 0 8 0H24Z" stroke="#E5E7EB"/>
<path d="M24.75 26H7.25V6H24.75V26Z" stroke="#E5E7EB"/>
<g clip-path="url(#clip0_3_210)">
<path d="M16 9.625C15.7785 9.625 15.5598 9.66328 15.352 9.73711L7.68203 12.507C7.42226 12.6027 7.25 12.8488 7.25 13.125C7.25 13.4012 7.42226 13.6473 7.68203 13.743L9.26523 14.3145C8.8168 15.0199 8.5625 15.8539 8.5625 16.7316V17.5C8.5625 18.2766 8.26719 19.0777 7.95273 19.7094C7.775 20.0648 7.57266 20.4148 7.3375 20.7375C7.25 20.8551 7.22539 21.0082 7.27461 21.1477C7.32383 21.2871 7.43867 21.391 7.58086 21.4266L9.33086 21.8641C9.4457 21.8941 9.56875 21.8723 9.66992 21.8094C9.77109 21.7465 9.84219 21.6426 9.86406 21.525C10.0992 20.3547 9.98164 19.3047 9.80664 18.5527C9.71914 18.1645 9.60156 17.768 9.4375 17.4043V16.7316C9.4375 15.9059 9.71641 15.1266 10.2004 14.5031C10.5531 14.0793 11.0098 13.7375 11.5457 13.527L15.8387 11.8398C16.0629 11.7523 16.3172 11.8617 16.4047 12.0859C16.4922 12.3102 16.3828 12.5645 16.1586 12.652L11.8656 14.3391C11.5266 14.473 11.2285 14.6781 10.9852 14.9297L15.3492 16.5047C15.557 16.5785 15.7758 16.6168 15.9973 16.6168C16.2187 16.6168 16.4375 16.5785 16.6453 16.5047L24.318 13.743C24.5777 13.65 24.75 13.4012 24.75 13.125C24.75 12.8488 24.5777 12.6027 24.318 12.507L16.648 9.73711C16.4402 9.66328 16.2215 9.625 16 9.625ZM10.75 19.9062C10.75 20.8715 13.1016 21.875 16 21.875C18.8984 21.875 21.25 20.8715 21.25 19.9062L20.8316 15.9305L16.9434 17.3359C16.6398 17.4453 16.3199 17.5 16 17.5C15.6801 17.5 15.3574 17.4453 15.0566 17.3359L11.1684 15.9305L10.75 19.9062Z" fill="white"/>
</g>
<defs>
<clipPath id="clip0_3_210">
<path d="M7.25 8.75H24.75V22.75H7.25V8.75Z" fill="white"/>
</clipPath>
</defs>
</svg>
