<svg width="212" height="40" viewBox="0 0 212 40" fill="none" xmlns="http://www.w3.org/2000/svg">
<path d="M212 40H0V0H212V40Z" stroke="#E5E7EB"/>
<path d="M32 0C36.4183 0 40 3.58172 40 8V32C40 36.4183 36.4183 40 32 40H8C3.58172 40 0 36.4183 0 32V8C0 3.58172 3.58172 0 8 0H32Z" fill="#E0E7FF"/>
<path d="M32 0C36.4183 0 40 3.58172 40 8V32C40 36.4183 36.4183 40 32 40H8C3.58172 40 0 36.4183 0 32V8C0 3.58172 3.58172 0 8 0H32Z" stroke="#E5E7EB"/>
<path d="M28 32H12V8H28V32Z" stroke="#E5E7EB"/>
<g clip-path="url(#clip0_3_355)">
<path d="M17.75 11C18.7156 11 19.5 11.7844 19.5 12.75V25.25C19.5 26.2156 18.7156 27 17.75 27C16.8469 27 16.1031 26.3156 16.0094 25.4344C15.8469 25.4781 15.675 25.5 15.5 25.5C14.3969 25.5 13.5 24.6031 13.5 23.5C13.5 23.2688 13.5406 23.0437 13.6125 22.8375C12.6687 22.4812 12 21.5688 12 20.5C12 19.5031 12.5844 18.6406 13.4312 18.2406C13.1594 17.9 13 17.4688 13 17C13 16.0406 13.675 15.2406 14.575 15.0437C14.525 14.8719 14.5 14.6875 14.5 14.5C14.5 13.5656 15.1438 12.7781 16.0094 12.5594C16.1031 11.6844 16.8469 11 17.75 11ZM22.25 11C23.1531 11 23.8938 11.6844 23.9906 12.5594C24.8594 12.7781 25.5 13.5625 25.5 14.5C25.5 14.6875 25.475 14.8719 25.425 15.0437C26.325 15.2375 27 16.0406 27 17C27 17.4688 26.8406 17.9 26.5688 18.2406C27.4156 18.6406 28 19.5031 28 20.5C28 21.5688 27.3313 22.4812 26.3875 22.8375C26.4594 23.0437 26.5 23.2688 26.5 23.5C26.5 24.6031 25.6031 25.5 24.5 25.5C24.325 25.5 24.1531 25.4781 23.9906 25.4344C23.8969 26.3156 23.1531 27 22.25 27C21.2844 27 20.5 26.2156 20.5 25.25V12.75C20.5 11.7844 21.2844 11 22.25 11Z" fill="#4F46E5"/>
</g>
<path d="M212 24H196V0H212V24Z" stroke="#E5E7EB"/>
<path d="M212 23H196V0H212V23Z" stroke="#E5E7EB"/>
<path d="M212 19H196V3H212V19Z" stroke="#E5E7EB"/>
<path d="M203.056 17.6312L202.978 17.5593L197.503 12.475C196.544 11.5843 196 10.3343 196 9.02496V8.92183C196 6.72183 197.562 4.83433 199.725 4.42183C200.956 4.18433 202.216 4.46871 203.219 5.17496C203.5 5.37496 203.762 5.60621 204 5.87183C204.131 5.72183 204.272 5.58433 204.422 5.45621C204.538 5.35621 204.656 5.26246 204.781 5.17496C205.784 4.46871 207.044 4.18433 208.275 4.41871C210.438 4.83121 212 6.72183 212 8.92183V9.02496C212 10.3343 211.456 11.5843 210.497 12.475L205.022 17.5593L204.944 17.6312C204.688 17.8687 204.35 18.0031 204 18.0031C203.65 18.0031 203.312 17.8718 203.056 17.6312ZM203.472 7.53121C203.459 7.52183 203.45 7.50933 203.441 7.49683L202.884 6.87183L202.881 6.86871C202.159 6.05933 201.069 5.69058 200.006 5.89371C198.55 6.17183 197.5 7.44058 197.5 8.92183V9.02496C197.5 9.91558 197.872 10.7687 198.525 11.375L204 16.4593L209.475 11.375C210.128 10.7687 210.5 9.91558 210.5 9.02496V8.92183C210.5 7.44371 209.45 6.17183 207.997 5.89371C206.934 5.69058 205.841 6.06246 205.122 6.86871C205.122 6.86871 205.122 6.86871 205.119 6.87183C205.116 6.87496 205.119 6.87183 205.116 6.87496L204.559 7.49996C204.55 7.51246 204.537 7.52183 204.528 7.53433C204.387 7.67496 204.197 7.75308 204 7.75308C203.803 7.75308 203.613 7.67496 203.472 7.53433V7.53121Z" fill="#A3A3A3"/>
<defs>
<clipPath id="clip0_3_355">
<path d="M12 11H28V27H12V11Z" fill="white"/>
</clipPath>
</defs>
</svg>
