<svg width="16" height="24" viewBox="0 0 16 24" fill="none" xmlns="http://www.w3.org/2000/svg">
<path d="M16 24H0V0H16V24Z" stroke="#E5E7EB"/>
<g clip-path="url(#clip0_3_234)">
<path d="M14.5 11C14.5 12.7239 13.8152 14.3772 12.5962 15.5962C11.3772 16.8152 9.72391 17.5 8 17.5C6.27609 17.5 4.62279 16.8152 3.40381 15.5962C2.18482 14.3772 1.5 12.7239 1.5 11C1.5 9.27609 2.18482 7.62279 3.40381 6.40381C4.62279 5.18482 6.27609 4.5 8 4.5C9.72391 4.5 11.3772 5.18482 12.5962 6.40381C13.8152 7.62279 14.5 9.27609 14.5 11ZM0 11C0 13.1217 0.842855 15.1566 2.34315 16.6569C3.84344 18.1571 5.87827 19 8 19C10.1217 19 12.1566 18.1571 13.6569 16.6569C15.1571 15.1566 16 13.1217 16 11C16 8.87827 15.1571 6.84344 13.6569 5.34315C12.1566 3.84285 10.1217 3 8 3C5.87827 3 3.84344 3.84285 2.34315 5.34315C0.842855 6.84344 0 8.87827 0 11ZM7.25 6.75V11C7.25 11.25 7.375 11.4844 7.58437 11.625L10.5844 13.625C10.9281 13.8562 11.3938 13.7625 11.625 13.4156C11.8562 13.0687 11.7625 12.6062 11.4156 12.375L8.75 10.6V6.75C8.75 6.33437 8.41562 6 8 6C7.58437 6 7.25 6.33437 7.25 6.75Z" fill="#3E74F0"/>
</g>
<defs>
<clipPath id="clip0_3_234">
<path d="M0 3H16V19H0V3Z" fill="white"/>
</clipPath>
</defs>
</svg>
