<svg width="48" height="48" viewBox="0 0 48 48" fill="none" xmlns="http://www.w3.org/2000/svg">
<path d="M24 0C37.2548 0 48 10.7452 48 24C48 37.2548 37.2548 48 24 48C10.7452 48 0 37.2548 0 24C0 10.7452 10.7452 0 24 0Z" fill="#EEF4FF"/>
<path d="M24 0C37.2548 0 48 10.7452 48 24C48 37.2548 37.2548 48 24 48C10.7452 48 0 37.2548 0 24C0 10.7452 10.7452 0 24 0Z" stroke="#E5E7EB"/>
<path d="M32.75 38H15.25V10H32.75V38Z" stroke="#E5E7EB"/>
<g clip-path="url(#clip0_3_269)">
<path d="M25.25 16.625C25.25 15.9336 24.6914 15.375 24 15.375C23.3086 15.375 22.75 15.9336 22.75 16.625V22.25H17.125C16.4336 22.25 15.875 22.8086 15.875 23.5C15.875 24.1914 16.4336 24.75 17.125 24.75H22.75V30.375C22.75 31.0664 23.3086 31.625 24 31.625C24.6914 31.625 25.25 31.0664 25.25 30.375V24.75H30.875C31.5664 24.75 32.125 24.1914 32.125 23.5C32.125 22.8086 31.5664 22.25 30.875 22.25H25.25V16.625Z" fill="#3E74F0"/>
</g>
<defs>
<clipPath id="clip0_3_269">
<path d="M15.25 13.5H32.75V33.5H15.25V13.5Z" fill="white"/>
</clipPath>
</defs>
</svg>
